<svg width="1024" height="1024" viewBox="0 0 1024 1024" fill="#000" xmlns="http://www.w3.org/2000/svg">
  <path fill-rule="evenodd" d="M 662.00,519.00 L 884.00,519.00 L 884.00,505.00 L 662.00,505.00 Z M 638.40,593.06 L 830.66,704.06 L 837.66,691.94 L 645.40,580.94 Z M 580.94,645.40 L 691.94,837.66 L 704.06,830.66 L 593.06,638.40 Z M 505.00,662.00 L 505.00,884.00 L 519.00,884.00 L 519.00,662.00 Z M 430.94,638.40 L 319.94,830.66 L 332.06,837.66 L 443.06,645.40 Z M 378.60,580.94 L 186.34,691.94 L 193.34,704.06 L 385.60,593.06 Z M 362.00,505.00 L 140.00,505.00 L 140.00,519.00 L 362.00,519.00 Z M 385.60,430.94 L 193.34,319.94 L 186.34,332.06 L 378.60,443.06 Z M 443.06,378.60 L 332.06,186.34 L 319.94,193.34 L 430.94,385.60 Z M 519.00,362.00 L 519.00,140.00 L 505.00,140.00 L 505.00,362.00 Z M 593.06,385.60 L 704.06,193.34 L 691.94,186.34 L 580.94,378.60 Z M 645.40,443.06 L 837.66,332.06 L 830.66,319.94 L 638.40,430.94 Z"/>
  <path fill-rule="evenodd" d="M 140.00,512.00 a 372.00,372.00 0 1,0 744.00,0 a 372.00,372.00 0 1,0 -744.00,0 Z M 170.00,512.00 a 342.00,342.00 0 1,0 684.00,0 a 342.00,342.00 0 1,0 -684.00,0 Z"/>
  <path fill-rule="evenodd" d="M 226.00,512.00 a 286.00,286.00 0 1,0 572.00,0 a 286.00,286.00 0 1,0 -572.00,0 Z M 250.00,512.00 a 262.00,262.00 0 1,0 524.00,0 a 262.00,262.00 0 1,0 -524.00,0 Z"/>
  <path fill-rule="evenodd" d="M 306.00,512.00 a 206.00,206.00 0 1,0 412.00,0 a 206.00,206.00 0 1,0 -412.00,0 Z M 324.00,512.00 a 188.00,188.00 0 1,0 376.00,0 a 188.00,188.00 0 1,0 -376.00,0 Z"/>
</svg>
